<svg width="18" height="14" viewBox="0 0 18 14" fill="none" xmlns="http://www.w3.org/2000/svg">
<path d="M2.40234 13.6743C1.61133 13.6743 1.01318 13.4717 0.60791 13.0664C0.202637 12.666 0 12.0752 0 11.2939V2.38037C0 1.59424 0.202637 1.00098 0.60791 0.600586C1.01318 0.200195 1.61133 0 2.40234 0H14.9414C15.7373 0 16.3379 0.200195 16.7432 0.600586C17.1484 1.00098 17.3511 1.59424 17.3511 2.38037V11.2939C17.3511 12.0752 17.1484 12.666 16.7432 13.0664C16.3379 13.4717 15.7373 13.6743 14.9414 13.6743H2.40234ZM2.49023 12.2314H14.8608C15.1978 12.2314 15.4565 12.1436 15.6372 11.9678C15.8179 11.792 15.9082 11.5259 15.9082 11.1694V2.49756C15.9082 2.146 15.8179 1.88232 15.6372 1.70654C15.4565 1.53076 15.1978 1.44287 14.8608 1.44287H2.49023C2.14844 1.44287 1.88721 1.53076 1.70654 1.70654C1.53076 1.88232 1.44287 2.146 1.44287 2.49756V11.1694C1.44287 11.5259 1.53076 11.792 1.70654 11.9678C1.88721 12.1436 2.14844 12.2314 2.49023 12.2314ZM5.82275 12.4658V1.19385H7.19238V12.4658H5.82275ZM4.38721 4.12354H2.88574C2.75879 4.12354 2.64648 4.07471 2.54883 3.97705C2.45605 3.87939 2.40967 3.77197 2.40967 3.65479C2.40967 3.52783 2.45605 3.41797 2.54883 3.3252C2.64648 3.23242 2.75879 3.18604 2.88574 3.18604H4.38721C4.51904 3.18604 4.63135 3.23242 4.72412 3.3252C4.82178 3.41797 4.87061 3.52783 4.87061 3.65479C4.87061 3.77197 4.82178 3.87939 4.72412 3.97705C4.63135 4.07471 4.51904 4.12354 4.38721 4.12354ZM4.38721 6.08643H2.88574C2.75879 6.08643 2.64648 6.04004 2.54883 5.94727C2.45605 5.84961 2.40967 5.7373 2.40967 5.61035C2.40967 5.48828 2.45605 5.38086 2.54883 5.28809C2.64648 5.19531 2.75879 5.14893 2.88574 5.14893H4.38721C4.51904 5.14893 4.63135 5.19531 4.72412 5.28809C4.82178 5.38086 4.87061 5.48828 4.87061 5.61035C4.87061 5.7373 4.82178 5.84961 4.72412 5.94727C4.63135 6.04004 4.51904 6.08643 4.38721 6.08643ZM4.38721 8.04199H2.88574C2.75879 8.04199 2.64648 7.99561 2.54883 7.90283C2.45605 7.81006 2.40967 7.70264 2.40967 7.58057C2.40967 7.45361 2.45605 7.34375 2.54883 7.25098C2.64648 7.1582 2.75879 7.11182 2.88574 7.11182H4.38721C4.51904 7.11182 4.63135 7.1582 4.72412 7.25098C4.82178 7.34375 4.87061 7.45361 4.87061 7.58057C4.87061 7.70264 4.82178 7.81006 4.72412 7.90283C4.63135 7.99561 4.51904 8.04199 4.38721 8.04199Z" fill="#1A1A1A"/>
</svg>
